<svg width="364" height="449" viewBox="0 0 364 449" fill="none" xmlns="http://www.w3.org/2000/svg">
<path d="M145.101 83.0212L36.7818 154.869L36.7818 11.1732L145.101 83.0212Z" fill="#C4C4C4"/>
<path d="M252.388 153.54L144.069 225.388L144.069 81.6917L252.388 153.54Z" fill="#49AF91"/>
<path d="M359.676 224.058L251.357 295.906L251.357 152.21L359.676 224.058Z" fill="#49AF91"/>
<path d="M252.388 294.577L144.069 366.425L144.069 222.729L252.388 294.577Z" fill="#EF798A"/>
<path d="M145.101 83.0212L36.7818 154.869L36.7818 11.1732L145.101 83.0212Z" fill="#07536B"/>
<path d="M37.8136 153.54L146.133 81.6917L146.133 225.388L37.8136 153.54Z" fill="#EF798A"/>
<path d="M145.101 224.058L253.42 152.21L253.42 295.906L145.101 224.058Z" fill="#DBCAA2"/>
<path d="M37.8136 294.577L146.133 222.729L146.133 366.425L37.8136 294.577Z" fill="#07536B"/>
<path d="M145.101 224.058L36.7818 295.906L36.7818 152.21L145.101 224.058Z" fill="#07536B"/>
<path d="M145.101 365.095L36.7818 436.943L36.7818 293.247L145.101 365.095Z" fill="#49AF91"/>
</svg>


