<svg width="61" height="76" viewBox="0 0 61 76" fill="none" xmlns="http://www.w3.org/2000/svg">
<path d="M24.5402 14.0741L6.13505 26.2626L6.13505 1.88557L24.5402 14.0741Z" fill="#C4C4C4"/>
<path d="M42.7701 26.037L24.365 38.2255L24.365 13.8485L42.7701 26.037Z" fill="#07536B"/>
<path d="M61 38L42.5948 50.1885L42.5948 25.8115L61 38Z" fill="#49AF91"/>
<path d="M42.7701 49.963L24.365 62.1515L24.365 37.7745L42.7701 49.963Z" fill="#07536B"/>
<path d="M24.5402 14.0741L6.13505 26.2626L6.13505 1.88557L24.5402 14.0741Z" fill="#07536B"/>
<path d="M6.31036 26.037L24.7155 13.8485L24.7155 38.2255L6.31036 26.037Z" fill="#EF798A"/>
<path d="M24.5402 38L42.9454 25.8115L42.9454 50.1885L24.5402 38Z" fill="#DBCAA2"/>
<path d="M6.31036 49.963L24.7155 37.7745L24.7155 62.1515L6.31036 49.963Z" fill="#07536B"/>
<path d="M24.5402 38L6.13505 50.1885L6.13505 25.8115L24.5402 38Z" fill="#07536B"/>
<path d="M24.5402 61.9259L6.13505 74.1144L6.13505 49.7374L24.5402 61.9259Z" fill="#49AF91"/>
</svg>
