<svg width="100" height="100" viewBox="0 0 100 100" fill="none" xmlns="http://www.w3.org/2000/svg">
<circle cx="50" cy="50" r="50" fill="white"/>
<path d="M50.2759 37.4074L40.319 43.8224L40.319 30.9924L50.2759 37.4074Z" fill="#C4C4C4"/>
<path d="M60.1379 43.7037L50.181 50.1187L50.181 37.2887L60.1379 43.7037Z" fill="#07536B"/>
<path d="M70 50L60.0431 56.415L60.0431 43.585L70 50Z" fill="#49AF91"/>
<path d="M60.1379 56.2963L50.181 62.7113L50.181 49.8813L60.1379 56.2963Z" fill="#07536B"/>
<path d="M50.2759 37.4074L40.319 43.8224L40.319 30.9924L50.2759 37.4074Z" fill="#07536B"/>
<path d="M40.4138 43.7037L50.3707 37.2887L50.3707 50.1187L40.4138 43.7037Z" fill="#EF798A"/>
<path d="M50.2759 50L60.2328 43.585L60.2328 56.415L50.2759 50Z" fill="#DBCAA2"/>
<path d="M40.4138 56.2963L50.3707 49.8813L50.3707 62.7113L40.4138 56.2963Z" fill="#07536B"/>
<path d="M50.2759 50L40.319 56.415L40.319 43.585L50.2759 50Z" fill="#07536B"/>
<path d="M50.2759 62.5926L40.319 69.0076L40.319 56.1776L50.2759 62.5926Z" fill="#49AF91"/>
</svg>
