<svg width="252" height="313" viewBox="0 0 252 313" fill="none" xmlns="http://www.w3.org/2000/svg">
<g filter="url(#filter0_d)">
<path d="M109.644 44.4444L51.4109 82.9345L51.4109 5.95442L109.644 44.4444Z" fill="#C4C4C4"/>
<path d="M167.322 82.2223L109.089 120.712L109.089 43.7323L167.322 82.2223Z" fill="#49AF91"/>
<path d="M225 120L166.767 158.49L166.767 81.5101L225 120Z" fill="#49AF91"/>
<path d="M167.322 157.778L109.089 196.268L109.089 119.288L167.322 157.778Z" fill="#EF798A"/>
<path d="M109.644 44.4444L51.4109 82.9345L51.4109 5.95442L109.644 44.4444Z" fill="#07536B"/>
<path d="M51.9656 82.2221L110.198 43.732L110.198 120.712L51.9656 82.2221Z" fill="#EF798A"/>
<path d="M109.644 120L167.876 81.5099L167.876 158.49L109.644 120Z" fill="#DBCAA2"/>
<path d="M51.9656 157.778L110.198 119.288L110.198 196.268L51.9656 157.778Z" fill="#07536B"/>
<path d="M109.644 120L51.4109 158.49L51.4109 81.5101L109.644 120Z" fill="#07536B"/>
<path d="M109.644 195.556L51.4109 234.046L51.4109 157.066L109.644 195.556Z" fill="#49AF91"/>
</g>
<path d="M33.584 278.896H43.056V297.072C40.624 298.907 37.808 300.315 34.608 301.296C31.408 302.277 28.1867 302.768 24.944 302.768C20.2933 302.768 16.112 301.787 12.4 299.824C8.688 297.819 5.76533 295.067 3.632 291.568C1.54133 288.027 0.496 284.037 0.496 279.6C0.496 275.163 1.54133 271.195 3.632 267.696C5.76533 264.155 8.70933 261.403 12.464 259.44C16.2187 257.435 20.4427 256.432 25.136 256.432C29.0613 256.432 32.624 257.093 35.824 258.416C39.024 259.739 41.712 261.659 43.888 264.176L37.232 270.32C34.032 266.949 30.1707 265.264 25.648 265.264C22.7893 265.264 20.2507 265.861 18.032 267.056C15.8133 268.251 14.0853 269.936 12.848 272.112C11.6107 274.288 10.992 276.784 10.992 279.6C10.992 282.373 11.6107 284.848 12.848 287.024C14.0853 289.2 15.792 290.907 17.968 292.144C20.1867 293.339 22.704 293.936 25.52 293.936C28.5067 293.936 31.1947 293.296 33.584 292.016V278.896ZM85.711 284.912C85.711 285.04 85.647 285.936 85.519 287.6H59.471C59.9403 289.733 61.0497 291.419 62.799 292.656C64.5483 293.893 66.7243 294.512 69.327 294.512C71.119 294.512 72.6977 294.256 74.063 293.744C75.471 293.189 76.7723 292.336 77.967 291.184L83.279 296.944C80.0363 300.656 75.3003 302.512 69.071 302.512C65.1883 302.512 61.7537 301.765 58.767 300.272C55.7803 298.736 53.4763 296.624 51.855 293.936C50.2337 291.248 49.423 288.197 49.423 284.784C49.423 281.413 50.2123 278.384 51.791 275.696C53.4123 272.965 55.6097 270.853 58.383 269.36C61.199 267.824 64.335 267.056 67.791 267.056C71.1617 267.056 74.2123 267.781 76.943 269.232C79.6737 270.683 81.807 272.773 83.343 275.504C84.9217 278.192 85.711 281.328 85.711 284.912ZM67.855 274.608C65.5937 274.608 63.695 275.248 62.159 276.528C60.623 277.808 59.6843 279.557 59.343 281.776H76.303C75.9617 279.6 75.023 277.872 73.487 276.592C71.951 275.269 70.0737 274.608 67.855 274.608ZM114.566 300.336C113.585 301.061 112.369 301.616 110.918 302C109.51 302.341 108.017 302.512 106.438 302.512C102.342 302.512 99.1633 301.467 96.902 299.376C94.6833 297.285 93.574 294.213 93.574 290.16V276.016H88.262V268.336H93.574V259.952H103.558V268.336H112.134V276.016H103.558V290.032C103.558 291.483 103.921 292.613 104.646 293.424C105.414 294.192 106.481 294.576 107.846 294.576C109.425 294.576 110.769 294.149 111.878 293.296L114.566 300.336ZM142.571 302.768C137.92 302.768 133.717 301.765 129.963 299.76C126.251 297.755 123.328 295.003 121.195 291.504C119.104 287.963 118.059 283.995 118.059 279.6C118.059 275.205 119.104 271.259 121.195 267.76C123.328 264.219 126.251 261.445 129.963 259.44C133.717 257.435 137.92 256.432 142.571 256.432C147.221 256.432 151.403 257.435 155.115 259.44C158.827 261.445 161.749 264.219 163.883 267.76C166.016 271.259 167.083 275.205 167.083 279.6C167.083 283.995 166.016 287.963 163.883 291.504C161.749 295.003 158.827 297.755 155.115 299.76C151.403 301.765 147.221 302.768 142.571 302.768ZM142.571 293.936C145.216 293.936 147.605 293.339 149.739 292.144C151.872 290.907 153.536 289.2 154.731 287.024C155.968 284.848 156.587 282.373 156.587 279.6C156.587 276.827 155.968 274.352 154.731 272.176C153.536 270 151.872 268.315 149.739 267.12C147.605 265.883 145.216 265.264 142.571 265.264C139.925 265.264 137.536 265.883 135.403 267.12C133.269 268.315 131.584 270 130.347 272.176C129.152 274.352 128.555 276.827 128.555 279.6C128.555 282.373 129.152 284.848 130.347 287.024C131.584 289.2 133.269 290.907 135.403 292.144C137.536 293.339 139.925 293.936 142.571 293.936ZM208.859 267.568V302H199.387V297.904C198.064 299.397 196.485 300.549 194.651 301.36C192.816 302.128 190.832 302.512 188.699 302.512C184.176 302.512 180.592 301.211 177.947 298.608C175.301 296.005 173.979 292.144 173.979 287.024V267.568H183.963V285.552C183.963 291.099 186.288 293.872 190.939 293.872C193.328 293.872 195.248 293.104 196.699 291.568C198.149 289.989 198.875 287.664 198.875 284.592V267.568H208.859ZM240.316 300.336C239.335 301.061 238.119 301.616 236.668 302C235.26 302.341 233.767 302.512 232.188 302.512C228.092 302.512 224.913 301.467 222.652 299.376C220.433 297.285 219.324 294.213 219.324 290.16V276.016H214.012V268.336H219.324V259.952H229.308V268.336H237.884V276.016H229.308V290.032C229.308 291.483 229.671 292.613 230.396 293.424C231.164 294.192 232.231 294.576 233.596 294.576C235.175 294.576 236.519 294.149 237.628 293.296L240.316 300.336Z" fill="white"/>
<defs>
<filter id="filter0_d" x="28" y="0" width="201" height="248" filterUnits="userSpaceOnUse" color-interpolation-filters="sRGB">
<feFlood flood-opacity="0" result="BackgroundImageFix"/>
<feColorMatrix in="SourceAlpha" type="matrix" values="0 0 0 0 0 0 0 0 0 0 0 0 0 0 0 0 0 0 127 0"/>
<feOffset dy="4"/>
<feGaussianBlur stdDeviation="2"/>
<feColorMatrix type="matrix" values="0 0 0 0 0 0 0 0 0 0 0 0 0 0 0 0 0 0 0.25 0"/>
<feBlend mode="normal" in2="BackgroundImageFix" result="effect1_dropShadow"/>
<feBlend mode="normal" in="SourceGraphic" in2="effect1_dropShadow" result="shape"/>
</filter>
</defs>
</svg>
